<?xml version="1.0" standalone="no"?>
<!DOCTYPE svg PUBLIC "-//W3C//DTD SVG 20010904//EN"
 "http://www.w3.org/TR/2001/REC-SVG-20010904/DTD/svg10.dtd">
<svg version="1.0" xmlns="http://www.w3.org/2000/svg"
 width="16.000000pt" height="16.000000pt" viewBox="0 0 16.000000 16.000000"
 preserveAspectRatio="xMidYMid meet">
<metadata>
Created by potrace 1.11, written by Peter Selinger 2001-2013
</metadata>
<g transform="translate(0.000000,16.000000) scale(0.002500,-0.002500)"
fill="#000000" stroke="none">
<path d="M1987 6244 c-1 -2 -34 -6 -72 -9 -164 -15 -380 -69 -532 -132 -18 -7
-35 -13 -38 -13 -13 0 -225 -116 -293 -160 -41 -28 -76 -50 -78 -50 -8 0 -203
-167 -239 -205 -30 -32 -138 -151 -153 -170 -8 -9 -100 -142 -122 -175 -27
-40 -87 -149 -100 -180 -8 -19 -17 -37 -20 -40 -3 -3 -20 -43 -38 -90 -17 -47
-37 -98 -43 -115 -7 -16 -13 -36 -15 -44 -1 -8 -12 -49 -23 -90 -21 -78 -25
-101 -37 -180 -4 -25 -9 -55 -11 -66 -9 -38 -10 -380 -2 -440 5 -33 11 -80 14
-105 6 -56 50 -240 71 -300 55 -155 98 -247 193 -415 58 -101 167 -239 277
-349 159 -161 324 -281 519 -376 109 -53 201 -94 215 -96 3 0 43 -12 90 -26
82 -25 151 -42 215 -53 17 -3 39 -7 50 -9 89 -18 372 -27 495 -15 l45 4 -2
-50 c-5 -98 -4 -331 1 -370 3 -22 8 -61 11 -87 4 -39 15 -97 40 -211 2 -10 7
-27 10 -37 3 -10 8 -27 10 -37 8 -38 70 -208 77 -211 5 -2 8 -10 8 -17 0 -26
163 -323 190 -345 3 -3 17 -21 30 -40 31 -44 60 -79 83 -99 9 -8 17 -19 17
-23 0 -9 126 -136 192 -193 81 -70 91 -78 199 -150 166 -112 300 -173 579
-263 22 -8 70 -18 130 -28 14 -3 32 -7 40 -9 8 -3 40 -8 70 -11 30 -3 69 -8
85 -10 41 -5 301 -5 345 1 19 2 60 6 90 10 30 3 84 12 120 19 36 8 68 12 73 9
4 -2 7 1 7 8 0 7 3 10 6 6 3 -3 17 -2 30 3 14 6 35 12 47 14 38 8 144 44 176
61 17 8 31 13 31 11 0 -18 399 208 430 243 3 3 30 26 60 51 369 299 603 703
695 1200 25 135 26 488 2 615 -8 36 -20 100 -23 115 -82 411 -344 836 -684
1105 -41 33 -77 62 -80 66 -3 3 -52 35 -110 70 -235 146 -483 239 -735 275
-22 3 -51 8 -65 10 -42 9 -371 12 -427 5 l-53 -7 6 80 c12 154 2 412 -20 502
-3 12 -8 39 -12 60 -3 21 -8 42 -11 47 -2 4 -7 20 -9 34 -6 30 -41 146 -54
178 -4 11 -18 47 -31 80 -108 283 -343 597 -594 794 -124 97 -141 108 -167
117 -10 4 -18 10 -18 14 0 14 -300 157 -395 189 -77 26 -124 39 -240 67 -11 2
-36 6 -55 9 -19 3 -45 7 -58 9 -67 14 -405 29 -415 20z m313 -208 c41 -4 84
-10 95 -13 11 -3 31 -7 45 -8 14 -1 35 -5 47 -9 21 -7 40 -11 91 -22 13 -3 43
-11 65 -20 23 -8 49 -16 57 -18 61 -15 246 -104 350 -169 177 -111 341 -262
468 -432 29 -38 56 -75 61 -81 20 -25 131 -226 131 -238 0 -6 4 -16 9 -21 33
-36 123 -347 137 -470 3 -32 8 -68 10 -79 7 -29 6 -294 -1 -336 -3 -19 -7 -49
-9 -66 -4 -39 -13 -54 -32 -54 -51 0 -322 -106 -453 -176 -46 -25 -85 -44 -87
-41 -2 2 -5 206 -8 453 -2 247 -6 463 -10 479 -4 17 -8 37 -10 45 -13 71 -64
168 -116 221 -40 41 -150 109 -150 94 0 -4 -6 -3 -12 2 -19 11 -34 13 -123 17
-44 1 -87 -1 -95 -5 -8 -4 -29 -9 -47 -12 -93 -15 -219 -107 -285 -209 -17
-26 -33 -48 -34 -48 -2 0 -12 19 -23 43 -91 199 -311 281 -544 203 -43 -14
-85 -32 -93 -39 -60 -47 -118 -106 -131 -131 -12 -22 -17 -26 -24 -15 -5 8 -4
15 1 17 6 2 7 9 3 15 -3 6 -5 35 -4 64 4 90 5 89 -106 87 -54 -1 -101 -2 -104
-3 -6 -1 -12 -155 -10 -221 1 -8 1 -62 0 -120 0 -58 0 -112 0 -120 0 -8 0 -62
0 -120 0 -58 0 -112 0 -120 1 -8 1 -62 0 -120 0 -58 0 -112 0 -120 0 -8 0 -62
0 -120 0 -58 0 -109 0 -115 0 -5 2 -37 3 -70 l3 -60 107 0 107 -1 0 401 c1
222 6 425 11 456 21 117 98 221 194 265 111 50 260 37 329 -29 35 -33 72 -87
61 -87 -4 0 -2 -6 4 -12 17 -22 30 -110 32 -218 0 -58 2 -256 3 -440 l2 -335
104 0 c60 0 105 4 107 10 2 5 5 197 7 425 2 228 6 429 11 445 14 59 54 132 93
172 136 139 394 133 470 -11 51 -95 55 -135 57 -655 l1 -386 75 -1 c41 -1 81
-2 89 -3 8 0 -8 -16 -35 -35 -27 -19 -53 -39 -59 -43 -5 -5 -30 -24 -55 -43
-24 -19 -52 -42 -61 -50 -52 -48 -148 -143 -175 -171 -69 -76 -197 -253 -237
-329 -11 -19 -31 -57 -46 -85 -41 -75 -106 -238 -135 -339 -14 -50 -29 -93
-33 -97 -20 -20 -316 -31 -453 -17 -81 8 -276 45 -293 55 -4 2 -19 7 -34 9
-15 3 -31 8 -37 12 -6 3 -16 7 -22 8 -31 5 -202 80 -278 122 -88 49 -244 154
-293 199 -104 95 -156 148 -233 238 -112 131 -289 466 -316 599 -2 10 -8 33
-13 50 -15 48 -42 185 -49 251 -15 146 -5 436 18 525 5 19 12 49 14 65 26 144
115 366 209 520 136 223 336 430 557 574 128 84 409 205 520 225 14 2 36 7 50
10 14 4 39 9 55 11 17 2 30 4 30 5 0 4 46 9 115 15 41 3 75 7 77 8 5 5 209 0
283 -7z m2240 -2191 c14 -3 41 -8 60 -11 147 -22 397 -107 530 -181 219 -122
437 -305 555 -468 11 -15 37 -49 58 -76 21 -27 35 -49 31 -49 -4 0 2 -10 13
-22 22 -25 30 -38 99 -178 45 -91 117 -292 127 -355 3 -16 8 -41 11 -55 29
-122 40 -383 24 -545 -14 -137 -89 -423 -120 -462 -6 -7 -8 -13 -4 -13 15 0
-148 -293 -201 -360 -123 -157 -232 -268 -353 -359 -41 -31 -77 -59 -80 -62
-11 -15 -223 -128 -297 -158 -43 -18 -87 -37 -98 -42 -31 -13 -196 -59 -230
-64 -16 -2 -31 -5 -32 -6 -6 -4 -109 -19 -173 -25 -52 -5 -291 -5 -320 0 -14
2 -47 7 -75 10 -194 23 -500 125 -617 208 -16 11 -28 17 -28 14 0 -9 -156 100
-225 156 -56 46 -188 172 -210 200 -5 7 -28 36 -51 63 -36 43 -102 138 -141
200 -33 52 -116 229 -143 305 -34 95 -65 212 -75 280 -3 25 -9 59 -12 75 -20
113 -19 386 2 494 5 29 -2 25 75 45 156 42 368 134 505 220 180 113 331 244
467 406 100 120 108 129 108 134 0 2 20 35 46 73 48 72 158 287 173 338 5 17
19 57 31 90 12 33 23 67 25 76 3 16 27 98 29 100 1 0 35 3 76 5 41 3 77 7 79
9 5 6 333 -3 361 -10z m-774 -157 c-63 -171 -135 -304 -248 -455 -161 -216
-385 -401 -630 -520 -104 -51 -256 -109 -264 -100 -3 2 10 42 27 88 142 375
376 666 709 884 100 65 322 171 375 179 8 1 18 5 21 9 4 4 16 7 25 7 17 0 15
-9 -15 -92z"/>
<path d="M4383 2874 c-52 -13 -121 -44 -151 -67 -34 -28 -122 -119 -122 -127
0 -6 -4 -10 -9 -10 -4 0 -8 42 -7 94 l1 95 -107 3 -108 3 -1 -25 c-3 -80 -4
-1267 -1 -1277 3 -9 34 -13 111 -13 l106 0 0 398 c1 399 4 462 25 517 6 17 10
30 9 30 -8 0 65 98 89 121 27 25 122 79 122 69 0 -3 9 -1 19 5 24 12 144 16
191 5 70 -15 133 -62 164 -123 15 -29 43 -139 44 -172 1 -8 1 -94 1 -190 0
-96 0 -184 0 -195 1 -11 1 -47 0 -80 0 -33 0 -67 0 -75 0 -8 1 -82 1 -163 l0
-148 108 3 107 3 -1 445 c0 245 -3 463 -7 485 -26 166 -92 279 -205 349 -85
53 -258 71 -379 40z"/>
</g>
</svg>
